<svg width="227" height="62" viewBox="0 0 227 62" fill="none" xmlns="http://www.w3.org/2000/svg">
<path d="M94.624 4.664V18.488C94.624 20.0027 95.0187 21.1653 95.808 21.976C96.5973 22.7653 97.7067 23.16 99.136 23.16C100.587 23.16 101.707 22.7653 102.496 21.976C103.285 21.1653 103.68 20.0027 103.68 18.488V4.664H108.192V18.456C108.192 20.3547 107.776 21.9653 106.944 23.288C106.133 24.5893 105.035 25.5707 103.648 26.232C102.283 26.8933 100.757 27.224 99.072 27.224C97.408 27.224 95.8933 26.8933 94.528 26.232C93.184 25.5707 92.1173 24.5893 91.328 23.288C90.5387 21.9653 90.144 20.3547 90.144 18.456V4.664H94.624ZM117.001 12.024C117.577 11.0853 118.323 10.3493 119.241 9.816C120.179 9.28267 121.246 9.016 122.441 9.016V13.72H121.257C119.849 13.72 118.782 14.0507 118.057 14.712C117.353 15.3733 117.001 16.5253 117.001 18.168V27H112.521V9.272H117.001V12.024ZM139.25 4.664V8.28H129.938V14.008H137.074V17.56H129.938V27H125.458V4.664H139.25ZM150.299 27.288C148.592 27.288 147.056 26.9147 145.691 26.168C144.325 25.4 143.248 24.3227 142.459 22.936C141.691 21.5493 141.307 19.9493 141.307 18.136C141.307 16.3227 141.701 14.7227 142.491 13.336C143.301 11.9493 144.4 10.8827 145.787 10.136C147.173 9.368 148.72 8.984 150.427 8.984C152.133 8.984 153.68 9.368 155.067 10.136C156.453 10.8827 157.541 11.9493 158.331 13.336C159.141 14.7227 159.547 16.3227 159.547 18.136C159.547 19.9493 159.131 21.5493 158.299 22.936C157.488 24.3227 156.379 25.4 154.971 26.168C153.584 26.9147 152.027 27.288 150.299 27.288ZM150.299 23.384C151.109 23.384 151.867 23.192 152.571 22.808C153.296 22.4027 153.872 21.8053 154.299 21.016C154.725 20.2267 154.939 19.2667 154.939 18.136C154.939 16.4507 154.491 15.16 153.595 14.264C152.72 13.3467 151.643 12.888 150.363 12.888C149.083 12.888 148.005 13.3467 147.131 14.264C146.277 15.16 145.851 16.4507 145.851 18.136C145.851 19.8213 146.267 21.1227 147.099 22.04C147.952 22.936 149.019 23.384 150.299 23.384ZM170.705 27.288C168.998 27.288 167.462 26.9147 166.097 26.168C164.732 25.4 163.654 24.3227 162.865 22.936C162.097 21.5493 161.713 19.9493 161.713 18.136C161.713 16.3227 162.108 14.7227 162.897 13.336C163.708 11.9493 164.806 10.8827 166.193 10.136C167.58 9.368 169.126 8.984 170.833 8.984C172.54 8.984 174.086 9.368 175.473 10.136C176.86 10.8827 177.948 11.9493 178.737 13.336C179.548 14.7227 179.953 16.3227 179.953 18.136C179.953 19.9493 179.537 21.5493 178.705 22.936C177.894 24.3227 176.785 25.4 175.377 26.168C173.99 26.9147 172.433 27.288 170.705 27.288ZM170.705 23.384C171.516 23.384 172.273 23.192 172.977 22.808C173.702 22.4027 174.278 21.8053 174.705 21.016C175.132 20.2267 175.345 19.2667 175.345 18.136C175.345 16.4507 174.897 15.16 174.001 14.264C173.126 13.3467 172.049 12.888 170.769 12.888C169.489 12.888 168.412 13.3467 167.537 14.264C166.684 15.16 166.257 16.4507 166.257 18.136C166.257 19.8213 166.673 21.1227 167.505 22.04C168.358 22.936 169.425 23.384 170.705 23.384ZM182.087 18.072C182.087 16.28 182.439 14.6907 183.143 13.304C183.869 11.9173 184.85 10.8507 186.087 10.104C187.325 9.35733 188.701 8.984 190.215 8.984C191.367 8.984 192.466 9.24 193.511 9.752C194.557 10.2427 195.389 10.904 196.007 11.736V3.32H200.551V27H196.007V24.376C195.453 25.2507 194.674 25.9547 193.671 26.488C192.669 27.0213 191.506 27.288 190.183 27.288C188.69 27.288 187.325 26.904 186.087 26.136C184.85 25.368 183.869 24.2907 183.143 22.904C182.439 21.496 182.087 19.8853 182.087 18.072ZM196.039 18.136C196.039 17.048 195.826 16.12 195.399 15.352C194.973 14.5627 194.397 13.9653 193.671 13.56C192.946 13.1333 192.167 12.92 191.335 12.92C190.503 12.92 189.735 13.1227 189.031 13.528C188.327 13.9333 187.751 14.5307 187.303 15.32C186.877 16.088 186.663 17.0053 186.663 18.072C186.663 19.1387 186.877 20.0773 187.303 20.888C187.751 21.6773 188.327 22.2853 189.031 22.712C189.757 23.1387 190.525 23.352 191.335 23.352C192.167 23.352 192.946 23.1493 193.671 22.744C194.397 22.3173 194.973 21.72 195.399 20.952C195.826 20.1627 196.039 19.224 196.039 18.136Z" fill="white"/>
<path d="M96.75 56H95.476L90.352 48.23V56H89.078V46.228H90.352L95.476 53.984V46.228H96.75V56ZM102.268 56.126C101.549 56.126 100.896 55.9627 100.308 55.636C99.7291 55.3093 99.2718 54.8473 98.9358 54.25C98.6091 53.6433 98.4458 52.9433 98.4458 52.15C98.4458 51.366 98.6138 50.6753 98.9498 50.078C99.2951 49.4713 99.7618 49.0093 100.35 48.692C100.938 48.3653 101.596 48.202 102.324 48.202C103.052 48.202 103.71 48.3653 104.298 48.692C104.886 49.0093 105.348 49.4667 105.684 50.064C106.029 50.6613 106.202 51.3567 106.202 52.15C106.202 52.9433 106.024 53.6433 105.67 54.25C105.324 54.8473 104.853 55.3093 104.256 55.636C103.658 55.9627 102.996 56.126 102.268 56.126ZM102.268 55.006C102.725 55.006 103.154 54.8987 103.556 54.684C103.957 54.4693 104.279 54.1473 104.522 53.718C104.774 53.2887 104.9 52.766 104.9 52.15C104.9 51.534 104.778 51.0113 104.536 50.582C104.293 50.1527 103.976 49.8353 103.584 49.63C103.192 49.4153 102.767 49.308 102.31 49.308C101.843 49.308 101.414 49.4153 101.022 49.63C100.639 49.8353 100.331 50.1527 100.098 50.582C99.8644 51.0113 99.7478 51.534 99.7478 52.15C99.7478 52.7753 99.8598 53.3027 100.084 53.732C100.317 54.1613 100.625 54.4833 101.008 54.698C101.39 54.9033 101.81 55.006 102.268 55.006ZM110.593 56.126C110.005 56.126 109.477 56.028 109.011 55.832C108.544 55.6267 108.175 55.3467 107.905 54.992C107.634 54.628 107.485 54.2127 107.457 53.746H108.773C108.81 54.1287 108.987 54.4413 109.305 54.684C109.631 54.9267 110.056 55.048 110.579 55.048C111.064 55.048 111.447 54.9407 111.727 54.726C112.007 54.5113 112.147 54.2407 112.147 53.914C112.147 53.578 111.997 53.3307 111.699 53.172C111.4 53.004 110.938 52.8407 110.313 52.682C109.743 52.5327 109.277 52.3833 108.913 52.234C108.558 52.0753 108.25 51.8467 107.989 51.548C107.737 51.24 107.611 50.8387 107.611 50.344C107.611 49.952 107.727 49.5927 107.961 49.266C108.194 48.9393 108.525 48.6827 108.955 48.496C109.384 48.3 109.874 48.202 110.425 48.202C111.274 48.202 111.96 48.4167 112.483 48.846C113.005 49.2753 113.285 49.8633 113.323 50.61H112.049C112.021 50.2087 111.857 49.8867 111.559 49.644C111.269 49.4013 110.877 49.28 110.383 49.28C109.925 49.28 109.561 49.378 109.291 49.574C109.02 49.77 108.885 50.0267 108.885 50.344C108.885 50.596 108.964 50.806 109.123 50.974C109.291 51.1327 109.496 51.2633 109.739 51.366C109.991 51.4593 110.336 51.5667 110.775 51.688C111.325 51.8373 111.773 51.9867 112.119 52.136C112.464 52.276 112.758 52.4907 113.001 52.78C113.253 53.0693 113.383 53.4473 113.393 53.914C113.393 54.334 113.276 54.712 113.043 55.048C112.809 55.384 112.478 55.65 112.049 55.846C111.629 56.0327 111.143 56.126 110.593 56.126ZM117.907 56.126C117.319 56.126 116.792 56.028 116.325 55.832C115.859 55.6267 115.49 55.3467 115.219 54.992C114.949 54.628 114.799 54.2127 114.771 53.746H116.087C116.125 54.1287 116.302 54.4413 116.619 54.684C116.946 54.9267 117.371 55.048 117.893 55.048C118.379 55.048 118.761 54.9407 119.041 54.726C119.321 54.5113 119.461 54.2407 119.461 53.914C119.461 53.578 119.312 53.3307 119.013 53.172C118.715 53.004 118.253 52.8407 117.627 52.682C117.058 52.5327 116.591 52.3833 116.227 52.234C115.873 52.0753 115.565 51.8467 115.303 51.548C115.051 51.24 114.925 50.8387 114.925 50.344C114.925 49.952 115.042 49.5927 115.275 49.266C115.509 48.9393 115.84 48.6827 116.269 48.496C116.699 48.3 117.189 48.202 117.739 48.202C118.589 48.202 119.275 48.4167 119.797 48.846C120.32 49.2753 120.6 49.8633 120.637 50.61H119.363C119.335 50.2087 119.172 49.8867 118.873 49.644C118.584 49.4013 118.192 49.28 117.697 49.28C117.24 49.28 116.876 49.378 116.605 49.574C116.335 49.77 116.199 50.0267 116.199 50.344C116.199 50.596 116.279 50.806 116.437 50.974C116.605 51.1327 116.811 51.2633 117.053 51.366C117.305 51.4593 117.651 51.5667 118.089 51.688C118.64 51.8373 119.088 51.9867 119.433 52.136C119.779 52.276 120.073 52.4907 120.315 52.78C120.567 53.0693 120.698 53.4473 120.707 53.914C120.707 54.334 120.591 54.712 120.357 55.048C120.124 55.384 119.793 55.65 119.363 55.846C118.943 56.0327 118.458 56.126 117.907 56.126ZM122.03 52.136C122.03 51.352 122.188 50.666 122.506 50.078C122.823 49.4807 123.257 49.0187 123.808 48.692C124.368 48.3653 124.988 48.202 125.67 48.202C126.342 48.202 126.925 48.3467 127.42 48.636C127.914 48.9253 128.283 49.2893 128.526 49.728V48.328H129.814V56H128.526V54.572C128.274 55.02 127.896 55.3933 127.392 55.692C126.897 55.9813 126.318 56.126 125.656 56.126C124.974 56.126 124.358 55.958 123.808 55.622C123.257 55.286 122.823 54.8147 122.506 54.208C122.188 53.6013 122.03 52.9107 122.03 52.136ZM128.526 52.15C128.526 51.5713 128.409 51.0673 128.176 50.638C127.942 50.2087 127.625 49.882 127.224 49.658C126.832 49.4247 126.398 49.308 125.922 49.308C125.446 49.308 125.012 49.42 124.62 49.644C124.228 49.868 123.915 50.1947 123.682 50.624C123.448 51.0533 123.332 51.5573 123.332 52.136C123.332 52.724 123.448 53.2373 123.682 53.676C123.915 54.1053 124.228 54.4367 124.62 54.67C125.012 54.894 125.446 55.006 125.922 55.006C126.398 55.006 126.832 54.894 127.224 54.67C127.625 54.4367 127.942 54.1053 128.176 53.676C128.409 53.2373 128.526 52.7287 128.526 52.15ZM135.223 52.15C135.223 51.3567 135.382 50.666 135.699 50.078C136.016 49.4807 136.455 49.0187 137.015 48.692C137.584 48.3653 138.233 48.202 138.961 48.202C139.904 48.202 140.678 48.4307 141.285 48.888C141.901 49.3453 142.307 49.98 142.503 50.792H141.131C141 50.3253 140.744 49.9567 140.361 49.686C139.988 49.4153 139.521 49.28 138.961 49.28C138.233 49.28 137.645 49.532 137.197 50.036C136.749 50.5307 136.525 51.2353 136.525 52.15C136.525 53.074 136.749 53.788 137.197 54.292C137.645 54.796 138.233 55.048 138.961 55.048C139.521 55.048 139.988 54.9173 140.361 54.656C140.734 54.3947 140.991 54.0213 141.131 53.536H142.503C142.298 54.32 141.887 54.95 141.271 55.426C140.655 55.8927 139.885 56.126 138.961 56.126C138.233 56.126 137.584 55.9627 137.015 55.636C136.455 55.3093 136.016 54.8473 135.699 54.25C135.382 53.6527 135.223 52.9527 135.223 52.15ZM147.549 56.126C146.83 56.126 146.177 55.9627 145.589 55.636C145.01 55.3093 144.553 54.8473 144.217 54.25C143.89 53.6433 143.727 52.9433 143.727 52.15C143.727 51.366 143.895 50.6753 144.231 50.078C144.576 49.4713 145.043 49.0093 145.631 48.692C146.219 48.3653 146.877 48.202 147.605 48.202C148.333 48.202 148.991 48.3653 149.579 48.692C150.167 49.0093 150.629 49.4667 150.965 50.064C151.31 50.6613 151.483 51.3567 151.483 52.15C151.483 52.9433 151.306 53.6433 150.951 54.25C150.606 54.8473 150.134 55.3093 149.537 55.636C148.94 55.9627 148.277 56.126 147.549 56.126ZM147.549 55.006C148.006 55.006 148.436 54.8987 148.837 54.684C149.238 54.4693 149.56 54.1473 149.803 53.718C150.055 53.2887 150.181 52.766 150.181 52.15C150.181 51.534 150.06 51.0113 149.817 50.582C149.574 50.1527 149.257 49.8353 148.865 49.63C148.473 49.4153 148.048 49.308 147.591 49.308C147.124 49.308 146.695 49.4153 146.303 49.63C145.92 49.8353 145.612 50.1527 145.379 50.582C145.146 51.0113 145.029 51.534 145.029 52.15C145.029 52.7753 145.141 53.3027 145.365 53.732C145.598 54.1613 145.906 54.4833 146.289 54.698C146.672 54.9033 147.092 55.006 147.549 55.006ZM162.384 48.188C162.981 48.188 163.513 48.314 163.98 48.566C164.447 48.8087 164.815 49.1773 165.086 49.672C165.357 50.1667 165.492 50.7687 165.492 51.478V56H164.232V51.66C164.232 50.8947 164.041 50.3113 163.658 49.91C163.285 49.4993 162.776 49.294 162.132 49.294C161.469 49.294 160.942 49.5087 160.55 49.938C160.158 50.358 159.962 50.9693 159.962 51.772V56H158.702V51.66C158.702 50.8947 158.511 50.3113 158.128 49.91C157.755 49.4993 157.246 49.294 156.602 49.294C155.939 49.294 155.412 49.5087 155.02 49.938C154.628 50.358 154.432 50.9693 154.432 51.772V56H153.158V48.328H154.432V49.434C154.684 49.0327 155.02 48.7247 155.44 48.51C155.869 48.2953 156.341 48.188 156.854 48.188C157.498 48.188 158.067 48.3327 158.562 48.622C159.057 48.9113 159.425 49.336 159.668 49.896C159.883 49.3547 160.237 48.9347 160.732 48.636C161.227 48.3373 161.777 48.188 162.384 48.188ZM168.24 47.082C167.997 47.082 167.792 46.998 167.624 46.83C167.456 46.662 167.372 46.4567 167.372 46.214C167.372 45.9713 167.456 45.766 167.624 45.598C167.792 45.43 167.997 45.346 168.24 45.346C168.473 45.346 168.669 45.43 168.828 45.598C168.996 45.766 169.08 45.9713 169.08 46.214C169.08 46.4567 168.996 46.662 168.828 46.83C168.669 46.998 168.473 47.082 168.24 47.082ZM168.856 48.328V56H167.582V48.328H168.856ZM170.551 52.136C170.551 51.352 170.71 50.666 171.027 50.078C171.345 49.4807 171.779 49.0187 172.329 48.692C172.889 48.3653 173.515 48.202 174.205 48.202C174.803 48.202 175.358 48.342 175.871 48.622C176.385 48.8927 176.777 49.252 177.047 49.7V45.64H178.335V56H177.047V54.558C176.795 55.0153 176.422 55.3933 175.927 55.692C175.433 55.9813 174.854 56.126 174.191 56.126C173.51 56.126 172.889 55.958 172.329 55.622C171.779 55.286 171.345 54.8147 171.027 54.208C170.71 53.6013 170.551 52.9107 170.551 52.136ZM177.047 52.15C177.047 51.5713 176.931 51.0673 176.697 50.638C176.464 50.2087 176.147 49.882 175.745 49.658C175.353 49.4247 174.919 49.308 174.443 49.308C173.967 49.308 173.533 49.42 173.141 49.644C172.749 49.868 172.437 50.1947 172.203 50.624C171.97 51.0533 171.853 51.5573 171.853 52.136C171.853 52.724 171.97 53.2373 172.203 53.676C172.437 54.1053 172.749 54.4367 173.141 54.67C173.533 54.894 173.967 55.006 174.443 55.006C174.919 55.006 175.353 54.894 175.745 54.67C176.147 54.4367 176.464 54.1053 176.697 53.676C176.931 53.2373 177.047 52.7287 177.047 52.15ZM180.012 52.136C180.012 51.352 180.171 50.666 180.488 50.078C180.805 49.4807 181.239 49.0187 181.79 48.692C182.35 48.3653 182.971 48.202 183.652 48.202C184.324 48.202 184.907 48.3467 185.402 48.636C185.897 48.9253 186.265 49.2893 186.508 49.728V48.328H187.796V56H186.508V54.572C186.256 55.02 185.878 55.3933 185.374 55.692C184.879 55.9813 184.301 56.126 183.638 56.126C182.957 56.126 182.341 55.958 181.79 55.622C181.239 55.286 180.805 54.8147 180.488 54.208C180.171 53.6013 180.012 52.9107 180.012 52.136ZM186.508 52.15C186.508 51.5713 186.391 51.0673 186.158 50.638C185.925 50.2087 185.607 49.882 185.206 49.658C184.814 49.4247 184.38 49.308 183.904 49.308C183.428 49.308 182.994 49.42 182.602 49.644C182.21 49.868 181.897 50.1947 181.664 50.624C181.431 51.0533 181.314 51.5573 181.314 52.136C181.314 52.724 181.431 53.2373 181.664 53.676C181.897 54.1053 182.21 54.4367 182.602 54.67C182.994 54.894 183.428 55.006 183.904 55.006C184.38 55.006 184.814 54.894 185.206 54.67C185.607 54.4367 185.925 54.1053 186.158 53.676C186.391 53.2373 186.508 52.7287 186.508 52.15Z" fill="#A4A4A4"/>
<path fill-rule="evenodd" clip-rule="evenodd" d="M32 16.3863C28.0372 16.3863 24.2897 15.7619 21.4481 14.6282C18.1848 13.3263 16.3875 11.4282 16.3876 9.28342C16.3876 7.13875 18.1849 5.24066 21.4482 3.93878C23.4813 3.12774 25.9794 2.57907 28.6871 2.33148C28.252 1.7631 28.2921 0.94524 28.8103 0.424548C29.3735 -0.141516 30.2867 -0.141516 30.85 0.424548L33.0197 2.60545C33.583 3.17152 33.583 4.0894 33.0197 4.65546L30.8499 6.83622C30.5683 7.11932 30.1991 7.2608 29.83 7.2608C29.4609 7.2608 29.0918 7.11932 28.8101 6.83622C28.3867 6.41048 28.2818 5.78585 28.4953 5.26153C26.2425 5.49927 24.1862 5.9656 22.5123 6.63342C20.1207 7.58754 19.2722 8.65734 19.2722 9.28342C19.2722 9.90949 20.1207 10.9793 22.5123 11.9334C25.0234 12.9352 28.3929 13.4869 32 13.4869C35.6071 13.4869 38.9766 12.9352 41.4877 11.9334C43.8793 10.9793 44.7279 9.90964 44.7279 9.28342C44.7279 8.26725 42.7568 6.76273 38.9897 5.85311C38.2152 5.66611 37.7382 4.88348 37.9242 4.10505C38.1102 3.32662 38.8892 2.8471 39.6635 3.03424C44.7153 4.25392 47.6125 6.53181 47.6125 9.28356C47.6125 11.4282 45.8152 13.3263 42.552 14.6282C39.7103 15.7619 35.9628 16.3863 32 16.3863ZM54.0449 22.9316C62.2728 25.5632 64 28.8933 64 31.2235C64 31.2615 63.9994 31.2998 63.9986 31.3382C63.9677 39.5286 60.6348 47.2209 54.6036 53.0091C48.5626 58.807 40.535 62 32 62C23.465 62 15.4376 58.807 9.39636 53.0091C3.36525 47.2209 0.0323082 39.5286 0.00144233 31.3382C0.000576933 31.2998 0 31.2615 0 31.2235C0 28.8933 1.72719 25.5632 9.95526 22.9314C15.8645 21.0416 23.6935 20.0008 32.0001 20.0008C37.5784 20.0008 42.9402 20.4709 47.651 21.3515L51.2414 15.8698C51.6795 15.2011 52.5738 15.0158 53.2392 15.456C53.9045 15.8963 54.0889 16.7952 53.6508 17.4639L50.6818 21.9969C51.8589 22.2804 52.9833 22.5921 54.0449 22.9316ZM61.1153 31.2235C61.1153 29.3804 58.071 27.2618 53.1701 25.6943C51.8716 25.279 50.4716 24.9072 48.9899 24.5802L43.0643 33.6274C47.4948 34.1688 51.5381 35.0324 54.8448 36.1683C58.7542 34.6827 61.1153 32.8463 61.1153 31.2235ZM14.3212 37.7103C19.4077 38.9025 25.5414 39.5469 32 39.5469C33.2755 39.5469 34.5381 39.5215 35.7825 39.472L38.0137 36.0656C36.0509 35.9376 34.0371 35.871 31.9996 35.871C25.5818 35.871 19.3965 36.5261 14.3212 37.7103ZM49.6789 37.7103C47.1254 37.1145 44.2905 36.6531 41.2866 36.3413L39.3765 39.2577C43.0908 38.96 46.5792 38.4368 49.6789 37.7103ZM31.9999 22.9001C23.9821 22.9001 16.4638 23.8925 10.8297 25.6943C5.92899 27.2616 2.88466 29.3804 2.88466 31.2235C2.88466 32.8465 5.2459 34.6828 9.15534 36.1683C15.077 34.134 23.3596 32.9717 31.9994 32.9717C34.6627 32.9717 37.2912 33.083 39.828 33.2953L45.9243 23.9876C41.688 23.2772 36.9391 22.9001 31.9999 22.9001ZM3.41054 36.5064C5.9962 49.3603 17.8318 59.1008 32 59.1008C46.1682 59.1008 58.0038 49.3605 60.5895 36.5064C59.0919 37.547 56.9831 38.5758 54.0449 39.5154C48.1358 41.4053 40.3067 42.4461 32 42.4461C23.6933 42.4461 15.8643 41.4053 9.95512 39.5154C7.01694 38.5757 4.90811 37.5469 3.41054 36.5064Z" fill="#FFB84D"/>
</svg>
